<?xml version="1.0" encoding="UTF-8"?>
<!DOCTYPE svg PUBLIC "-//W3C//DTD SVG 1.1//EN" "http://www.w3.org/Graphics/SVG/1.1/DTD/svg11.dtd">
<!-- Creator: CorelDRAW 2020 (64-Bit) -->
<svg xmlns="http://www.w3.org/2000/svg" xml:space="preserve" width="136mm" height="136mm" version="1.1" style="shape-rendering:geometricPrecision; text-rendering:geometricPrecision; image-rendering:optimizeQuality; fill-rule:evenodd; clip-rule:evenodd"
viewBox="0 0 1753.21 1753.21"
 xmlns:xlink="http://www.w3.org/1999/xlink"
 xmlns:xodm="http://www.corel.com/coreldraw/odm/2003">
 <defs>
  <style type="text/css">
   <![CDATA[
    .fil0 {fill:#FEFEFE}
   ]]>
  </style>
 </defs>
 <g id="Layer_x0020_1">
  <metadata id="CorelCorpID_0Corel-Layer"/>
  <path class="fil0" d="M876.61 0l309.93 128.38 309.93 128.37 76.33 221.44 16.12 45.06 62.38 167.54 81.8 221.75 20.14 52.5 -93.17 242.88 -92.78 258.67 -138.31 57.5 -3.94 1.64 142.25 -59.14 -70.61 29.41 -0.19 0.46 -154.96 64.18 -154.97 64.19 -146.42 60.65 -63.24 -46.32 -488.94 -296.95 -206.66 -463.99 104.67 -292.52 79.45 -221.79 -49.95 18.86 -65.8 183.9 -110.9 309.93 222.29 499.1 543.41 324.56 35.67 -14.78 -163.51 67.73 -309.93 -128.38 -309.93 -128.37 -128.37 -309.93 -128.38 -309.93 128.38 -309.93 128.37 -309.93 309.93 -128.37 309.93 -128.38zm387.34 1592.69l-52.09 21.66 85.66 -35.48 0.01 -0.01 -85.66 35.48 -568.53 -377.88 -137.29 -366.96 150.57 -401.13 48.3 -17.83 -151.59 418.96 123.29 342.74 149.33 96.72 -49.24 -118.89 -58.01 -140.05 58.01 -140.04 16.81 -40.6 90.55 0 -8.34 20.15 -41.02 99.02 41.02 99.03 41.02 99.03 99.03 41.01 99.03 41.02 99.03 -41.02 99.03 -41.01 41.02 -99.03 40.44 -97.64 -17.68 -43.91 -6.46 -17.16 -16.3 -39.34 -18.41 -44.44 3.17 0 -2.04 -5.43 -98.62 -42 -98.61 -42 -99.43 40.04 -99.43 40.04 -98.82 -0.54 -38.11 0 -26.88 -64.89 -58.01 -140.04 58.01 -140.05 58.01 -140.05 140.05 -58.01 140.05 -58.01 140.05 58.01 140.05 58.01 58 140.05 58.01 140.05 -116.01 61.47 -41.02 -99.03 -41.02 -99.03 -99.03 -41.01 -99.03 -41.02 -99.03 41.02 -99.03 41.01 -41.02 99.03 -41.02 99.03 5.95 14.38 116.21 -46.79 140.61 -56.62 139.46 59.39 139.46 59.4 55.02 136.65 21.47 51.83 58.01 140.04 -58.01 140.05 -58 140.05 -140.05 58.01 -140.05 58.01 -140.05 -58.01 -73.77 -30.56 362.98 235.11z"/>
 </g>
</svg>
